<?xml version="1.0" encoding="UTF-8" standalone="no"?>
<svg
   width="5in"
   height="3in"
   viewBox="0 0 5.0000001 76.199996"
   version="1.1"
   id="svg8"
   inkscape:version="1.2 (1:1.2.1+202207142221+cd75a1ee6d)"
   sodipodi:docname="d1_d2_fig.svg"
   inkscape:export-filename="d1_d2_fig.png"
   inkscape:export-xdpi="300"
   inkscape:export-ydpi="300"
   xmlns:inkscape="http://www.inkscape.org/namespaces/inkscape"
   xmlns:sodipodi="http://sodipodi.sourceforge.net/DTD/sodipodi-0.dtd"
   xmlns="http://www.w3.org/2000/svg"
   xmlns:svg="http://www.w3.org/2000/svg"
   xmlns:rdf="http://www.w3.org/1999/02/22-rdf-syntax-ns#"
   xmlns:cc="http://creativecommons.org/ns#"
   xmlns:dc="http://purl.org/dc/elements/1.1/">
  <defs
     id="defs2">
    <marker
       style="overflow:visible"
       id="marker4104"
       refX="0"
       refY="0"
       orient="auto"
       inkscape:stockid="Arrow1Send"
       inkscape:isstock="true">
      <path
         transform="matrix(-0.2,0,0,-0.2,-1.2,0)"
         style="fill:#000000;fill-opacity:1;fill-rule:evenodd;stroke:#000000;stroke-width:1pt;stroke-opacity:1"
         d="M 0,0 5,-5 -12.5,0 5,5 Z"
         id="path4102" />
    </marker>
    <marker
       style="overflow:visible"
       id="marker4094"
       refX="0"
       refY="0"
       orient="auto"
       inkscape:stockid="Arrow1Sstart"
       inkscape:isstock="true">
      <path
         transform="matrix(0.2,0,0,0.2,1.2,0)"
         style="fill:#000000;fill-opacity:1;fill-rule:evenodd;stroke:#000000;stroke-width:1pt;stroke-opacity:1"
         d="M 0,0 5,-5 -12.5,0 5,5 Z"
         id="path4092" />
    </marker>
    <marker
       style="overflow:visible"
       id="marker3866"
       refX="0"
       refY="0"
       orient="auto"
       inkscape:stockid="Arrow1Send"
       inkscape:isstock="true">
      <path
         transform="matrix(-0.2,0,0,-0.2,-1.2,0)"
         style="fill:#000000;fill-opacity:1;fill-rule:evenodd;stroke:#000000;stroke-width:1pt;stroke-opacity:1"
         d="M 0,0 5,-5 -12.5,0 5,5 Z"
         id="path3864" />
    </marker>
    <marker
       style="overflow:visible"
       id="marker3856"
       refX="0"
       refY="0"
       orient="auto"
       inkscape:stockid="Arrow1Sstart"
       inkscape:isstock="true">
      <path
         transform="matrix(0.2,0,0,0.2,1.2,0)"
         style="fill:#000000;fill-opacity:1;fill-rule:evenodd;stroke:#000000;stroke-width:1pt;stroke-opacity:1"
         d="M 0,0 5,-5 -12.5,0 5,5 Z"
         id="path3854" />
    </marker>
    <marker
       style="overflow:visible"
       id="marker3648"
       refX="0"
       refY="0"
       orient="auto"
       inkscape:stockid="Arrow1Send"
       inkscape:isstock="true"
       inkscape:collect="always">
      <path
         transform="matrix(-0.2,0,0,-0.2,-1.2,0)"
         style="fill:#000000;fill-opacity:1;fill-rule:evenodd;stroke:#000000;stroke-width:1pt;stroke-opacity:1"
         d="M 0,0 5,-5 -12.5,0 5,5 Z"
         id="path3646" />
    </marker>
    <marker
       style="overflow:visible"
       id="marker3638"
       refX="0"
       refY="0"
       orient="auto"
       inkscape:stockid="Arrow1Sstart"
       inkscape:isstock="true"
       inkscape:collect="always">
      <path
         transform="matrix(0.2,0,0,0.2,1.2,0)"
         style="fill:#000000;fill-opacity:1;fill-rule:evenodd;stroke:#000000;stroke-width:1pt;stroke-opacity:1"
         d="M 0,0 5,-5 -12.5,0 5,5 Z"
         id="path3636" />
    </marker>
    <marker
       style="overflow:visible"
       id="marker3146"
       refX="0"
       refY="0"
       orient="auto"
       inkscape:stockid="Tail"
       inkscape:isstock="true">
      <g
         transform="scale(-1.2)"
         id="g3144"
         style="fill:#ffffff;fill-opacity:1;stroke:#6d6d6d;stroke-opacity:1">
        <path
           style="fill:#ffffff;fill-opacity:1;fill-rule:evenodd;stroke:#6d6d6d;stroke-width:0.8;stroke-linecap:round;stroke-opacity:1"
           d="M -3.8048674,-3.9585227 0.54352094,0"
           id="path3132" />
        <path
           style="fill:#ffffff;fill-opacity:1;fill-rule:evenodd;stroke:#6d6d6d;stroke-width:0.8;stroke-linecap:round;stroke-opacity:1"
           d="M -1.2866832,-3.9585227 3.0617053,0"
           id="path3134" />
        <path
           style="fill:#ffffff;fill-opacity:1;fill-rule:evenodd;stroke:#6d6d6d;stroke-width:0.8;stroke-linecap:round;stroke-opacity:1"
           d="M 1.3053582,-3.9585227 5.6537466,0"
           id="path3136" />
        <path
           style="fill:#ffffff;fill-opacity:1;fill-rule:evenodd;stroke:#6d6d6d;stroke-width:0.8;stroke-linecap:round;stroke-opacity:1"
           d="M -3.8048674,4.1775838 0.54352094,0.21974226"
           id="path3138" />
        <path
           style="fill:#ffffff;fill-opacity:1;fill-rule:evenodd;stroke:#6d6d6d;stroke-width:0.8;stroke-linecap:round;stroke-opacity:1"
           d="M -1.2866832,4.1775838 3.0617053,0.21974226"
           id="path3140" />
        <path
           style="fill:#ffffff;fill-opacity:1;fill-rule:evenodd;stroke:#6d6d6d;stroke-width:0.8;stroke-linecap:round;stroke-opacity:1"
           d="M 1.3053582,4.1775838 5.6537466,0.21974226"
           id="path3142" />
      </g>
    </marker>
    <marker
       style="overflow:visible"
       id="Tail"
       refX="0"
       refY="0"
       orient="auto"
       inkscape:stockid="Tail"
       inkscape:isstock="true"
       inkscape:collect="always">
      <g
         transform="scale(-1.2)"
         id="g934"
         style="fill:#ffffff;fill-opacity:1;stroke:#6d6d6d;stroke-opacity:1">
        <path
           style="fill:#ffffff;fill-opacity:1;fill-rule:evenodd;stroke:#6d6d6d;stroke-width:0.8;stroke-linecap:round;stroke-opacity:1"
           d="M -3.8048674,-3.9585227 0.54352094,0"
           id="path922" />
        <path
           style="fill:#ffffff;fill-opacity:1;fill-rule:evenodd;stroke:#6d6d6d;stroke-width:0.8;stroke-linecap:round;stroke-opacity:1"
           d="M -1.2866832,-3.9585227 3.0617053,0"
           id="path924" />
        <path
           style="fill:#ffffff;fill-opacity:1;fill-rule:evenodd;stroke:#6d6d6d;stroke-width:0.8;stroke-linecap:round;stroke-opacity:1"
           d="M 1.3053582,-3.9585227 5.6537466,0"
           id="path926" />
        <path
           style="fill:#ffffff;fill-opacity:1;fill-rule:evenodd;stroke:#6d6d6d;stroke-width:0.8;stroke-linecap:round;stroke-opacity:1"
           d="M -3.8048674,4.1775838 0.54352094,0.21974226"
           id="path928" />
        <path
           style="fill:#ffffff;fill-opacity:1;fill-rule:evenodd;stroke:#6d6d6d;stroke-width:0.8;stroke-linecap:round;stroke-opacity:1"
           d="M -1.2866832,4.1775838 3.0617053,0.21974226"
           id="path930" />
        <path
           style="fill:#ffffff;fill-opacity:1;fill-rule:evenodd;stroke:#6d6d6d;stroke-width:0.8;stroke-linecap:round;stroke-opacity:1"
           d="M 1.3053582,4.1775838 5.6537466,0.21974226"
           id="path932" />
      </g>
    </marker>
    <marker
       style="overflow:visible"
       id="marker1324"
       refX="0"
       refY="0"
       orient="auto"
       inkscape:stockid="Arrow1Sstart"
       inkscape:isstock="true">
      <path
         transform="matrix(0.2,0,0,0.2,1.2,0)"
         style="fill:#000000;fill-opacity:1;fill-rule:evenodd;stroke:#000000;stroke-width:1pt;stroke-opacity:1"
         d="M 0,0 5,-5 -12.5,0 5,5 Z"
         id="path1322" />
    </marker>
    <marker
       style="overflow:visible"
       id="marker1314"
       refX="0"
       refY="0"
       orient="auto"
       inkscape:stockid="Arrow1Sstart"
       inkscape:isstock="true">
      <path
         transform="matrix(0.2,0,0,0.2,1.2,0)"
         style="fill:#000000;fill-opacity:1;fill-rule:evenodd;stroke:#000000;stroke-width:1pt;stroke-opacity:1"
         d="M 0,0 5,-5 -12.5,0 5,5 Z"
         id="path1312" />
    </marker>
    <marker
       style="overflow:visible"
       id="marker1274"
       refX="0"
       refY="0"
       orient="auto"
       inkscape:stockid="Arrow1Sstart"
       inkscape:isstock="true"
       inkscape:collect="always">
      <path
         transform="matrix(0.2,0,0,0.2,1.2,0)"
         style="fill:#000000;fill-opacity:1;fill-rule:evenodd;stroke:#000000;stroke-width:1pt;stroke-opacity:1"
         d="M 0,0 5,-5 -12.5,0 5,5 Z"
         id="path1272" />
    </marker>
    <marker
       style="overflow:visible"
       id="marker1202"
       refX="0"
       refY="0"
       orient="auto"
       inkscape:stockid="Arrow1Send"
       inkscape:isstock="true">
      <path
         transform="matrix(-0.2,0,0,-0.2,-1.2,0)"
         style="fill:#000000;fill-opacity:1;fill-rule:evenodd;stroke:#000000;stroke-width:1pt;stroke-opacity:1"
         d="M 0,0 5,-5 -12.5,0 5,5 Z"
         id="path1200" />
    </marker>
    <marker
       style="overflow:visible"
       id="marker1192"
       refX="0"
       refY="0"
       orient="auto"
       inkscape:stockid="Arrow1Send"
       inkscape:isstock="true">
      <path
         transform="matrix(-0.2,0,0,-0.2,-1.2,0)"
         style="fill:#000000;fill-opacity:1;fill-rule:evenodd;stroke:#000000;stroke-width:1pt;stroke-opacity:1"
         d="M 0,0 5,-5 -12.5,0 5,5 Z"
         id="path1190" />
    </marker>
    <marker
       style="overflow:visible"
       id="marker1170"
       refX="0"
       refY="0"
       orient="auto"
       inkscape:stockid="Arrow1Send"
       inkscape:isstock="true"
       inkscape:collect="always">
      <path
         transform="matrix(-0.2,0,0,-0.2,-1.2,0)"
         style="fill:#000000;fill-opacity:1;fill-rule:evenodd;stroke:#000000;stroke-width:1pt;stroke-opacity:1"
         d="M 0,0 5,-5 -12.5,0 5,5 Z"
         id="path1168" />
    </marker>
    <marker
       style="overflow:visible"
       id="marker3638-3"
       refX="0"
       refY="0"
       orient="auto"
       inkscape:stockid="Arrow1Sstart"
       inkscape:isstock="true"
       inkscape:collect="always">
      <path
         transform="matrix(0.2,0,0,0.2,1.2,0)"
         style="fill:#000000;fill-opacity:1;fill-rule:evenodd;stroke:#000000;stroke-width:1pt;stroke-opacity:1"
         d="M 0,0 5,-5 -12.5,0 5,5 Z"
         id="path3636-6" />
    </marker>
    <marker
       style="overflow:visible"
       id="marker3648-7"
       refX="0"
       refY="0"
       orient="auto"
       inkscape:stockid="Arrow1Send"
       inkscape:isstock="true"
       inkscape:collect="always">
      <path
         transform="matrix(-0.2,0,0,-0.2,-1.2,0)"
         style="fill:#000000;fill-opacity:1;fill-rule:evenodd;stroke:#000000;stroke-width:1pt;stroke-opacity:1"
         d="M 0,0 5,-5 -12.5,0 5,5 Z"
         id="path3646-5" />
    </marker>
  </defs>
  <sodipodi:namedview
     id="base"
     pagecolor="#ffffff"
     bordercolor="#666666"
     borderopacity="1.0"
     inkscape:pageopacity="0.0"
     inkscape:pageshadow="2"
     inkscape:zoom="3.2715936"
     inkscape:cx="235.97063"
     inkscape:cy="172.85154"
     inkscape:document-units="mm"
     inkscape:current-layer="layer1"
     inkscape:document-rotation="0"
     showgrid="false"
     inkscape:snap-intersection-paths="false"
     inkscape:snap-bbox="false"
     inkscape:snap-smooth-nodes="true"
     inkscape:snap-midpoints="false"
     inkscape:object-paths="true"
     inkscape:snap-nodes="true"
     inkscape:object-nodes="true"
     inkscape:snap-global="true"
     inkscape:snap-others="false"
     fit-margin-top="0"
     fit-margin-left="0"
     fit-margin-right="0"
     fit-margin-bottom="0"
     inkscape:window-width="1848"
     inkscape:window-height="1016"
     inkscape:window-x="72"
     inkscape:window-y="27"
     inkscape:window-maximized="1"
     scale-x="1"
     units="in"
     inkscape:showpageshadow="2"
     inkscape:pagecheckerboard="0"
     inkscape:deskcolor="#d1d1d1" />
  <metadata
     id="metadata5">
    <rdf:RDF>
      <cc:Work
         rdf:about="">
        <dc:format>image/svg+xml</dc:format>
        <dc:type
           rdf:resource="http://purl.org/dc/dcmitype/StillImage" />
        <dc:title />
      </cc:Work>
    </rdf:RDF>
  </metadata>
  <g
     inkscape:label="Layer 1"
     inkscape:groupmode="layer"
     id="layer1"
     transform="translate(-32.79936,-85.032274)">
    <path
       style="fill:none;stroke:#000000;stroke-width:0.265;stroke-linecap:butt;stroke-linejoin:miter;stroke-miterlimit:4;stroke-dasharray:none;stroke-opacity:1;marker-start:url(#marker3638-3);marker-end:url(#marker3648-7)"
       d="m 83.123506,153.63699 -99.156977,3e-5"
       id="path488"
       sodipodi:nodetypes="cc" />
    <path
       style="fill:none;stroke:#000000;stroke-width:0.1;stroke-linecap:butt;stroke-linejoin:miter;stroke-miterlimit:4;stroke-dasharray:0.2, 0.4;stroke-dashoffset:0;stroke-opacity:1"
       d="M 83.123506,96.350206 V 153.63699"
       id="path3620"
       sodipodi:nodetypes="cc" />
    <path
       style="fill:#0084ff;fill-opacity:0.471774;stroke:#2d2d2d;stroke-width:0.12;stroke-linecap:butt;stroke-linejoin:miter;stroke-miterlimit:4;stroke-dasharray:none;stroke-opacity:1"
       d="m -18.883884,148.69992 38.154713,-13.04534 2.020479,-0.73377 1.975632,-0.78427 1.977345,-0.80847 1.984075,-0.82399 60.557062,-28.07919 -63.037074,23.78368 -1.983451,0.7979 -1.983331,0.79811 -1.985728,0.82446 -1.944303,0.83519 -35.735419,17.23569"
       id="path1636"
       sodipodi:nodetypes="ccccccccccccc" />
    <path
       style="fill:#0084ff;fill-opacity:0.471774;stroke:#2d2d2d;stroke-width:0.12;stroke-linecap:butt;stroke-linejoin:miter;stroke-miterlimit:4;stroke-dasharray:none;stroke-opacity:1"
       d="m -18.883884,148.69992 37.148133,-14.78879 1.975605,-0.81149 1.972053,-0.81764 1.977345,-0.80847 1.984075,-0.82399 61.612095,-26.22465 -62.232492,25.18685 -1.962276,0.84291 -1.969479,0.846 -1.960391,0.84211 -1.944303,0.83519 -36.600365,15.72197"
       id="path1610"
       sodipodi:nodetypes="ccccccccccccc" />
    <g
       id="g860"
       transform="rotate(-30,133.4872,212.15904)">
      <path
         style="fill:none;stroke:#000000;stroke-width:0.264583px;stroke-linecap:butt;stroke-linejoin:miter;stroke-opacity:1"
         d="m 72.029137,91.005273 c 0,0 0.529167,-1.965544 0.529167,-4.07586 0,-2.110316 -0.529167,-4.07586 -0.529167,-4.07586 h 1.592049 c 0,0 -0.529167,1.965544 -0.529167,4.07586 0,2.110316 0.529167,4.07586 0.529167,4.07586 z"
         id="path837"
         sodipodi:nodetypes="czcczcc" />
      <path
         style="fill:none;stroke:#000000;stroke-width:0.264583px;stroke-linecap:butt;stroke-linejoin:miter;stroke-opacity:1"
         d="m 74.145805,91.005273 c 0,0 0.529167,-1.965544 0.529167,-4.07586 0,-2.110316 -0.529167,-4.07586 -0.529167,-4.07586 h 1.592049 c 0,0 -0.529167,1.965544 -0.529167,4.07586 0,2.110316 0.529167,4.07586 0.529167,4.07586 z"
         id="path847"
         sodipodi:nodetypes="czcczcc" />
      <path
         style="fill:none;stroke:#000000;stroke-width:0.264583px;stroke-linecap:butt;stroke-linejoin:miter;stroke-opacity:1"
         d="m 76.262473,91.005273 c 0,0 0.529167,-1.965544 0.529167,-4.07586 0,-2.110316 -0.529167,-4.07586 -0.529167,-4.07586 h 1.592049 c 0,0 -0.529167,1.965544 -0.529167,4.07586 0,2.110316 0.529167,4.07586 0.529167,4.07586 z"
         id="path849"
         sodipodi:nodetypes="czcczcc" />
      <path
         style="fill:none;stroke:#000000;stroke-width:0.264583px;stroke-linecap:butt;stroke-linejoin:miter;stroke-opacity:1"
         d="m 78.379141,91.005273 c 0,0 0.529167,-1.965544 0.529167,-4.07586 0,-2.110316 -0.529167,-4.07586 -0.529167,-4.07586 h 1.592049 c 0,0 -0.529167,1.965544 -0.529167,4.07586 0,2.110316 0.529167,4.07586 0.529167,4.07586 z"
         id="path851"
         sodipodi:nodetypes="czcczcc" />
      <path
         style="fill:none;stroke:#000000;stroke-width:0.264583px;stroke-linecap:butt;stroke-linejoin:miter;stroke-opacity:1"
         d="m 80.495809,91.005273 c 0,0 0.529167,-1.965544 0.529167,-4.07586 0,-2.110316 -0.529167,-4.07586 -0.529167,-4.07586 h 1.592049 c 0,0 -0.529167,1.965544 -0.529167,4.07586 0,2.110316 0.529167,4.07586 0.529167,4.07586 z"
         id="path853"
         sodipodi:nodetypes="czcczcc" />
    </g>
    <g
       id="g872"
       transform="translate(-8.9535292,-48.108515)">
      <path
         style="fill:none;stroke:#000000;stroke-width:0.264583px;stroke-linecap:butt;stroke-linejoin:miter;stroke-opacity:1"
         d="m 72.029137,91.005273 c 0,0 0.529167,-1.965544 0.529167,-4.07586 0,-2.110316 -0.529167,-4.07586 -0.529167,-4.07586 h 1.592049 c 0,0 -0.529167,1.965544 -0.529167,4.07586 0,2.110316 0.529167,4.07586 0.529167,4.07586 z"
         id="path862"
         sodipodi:nodetypes="czcczcc" />
      <path
         style="fill:none;stroke:#000000;stroke-width:0.264583px;stroke-linecap:butt;stroke-linejoin:miter;stroke-opacity:1"
         d="m 74.145805,91.005273 c 0,0 0.529167,-1.965544 0.529167,-4.07586 0,-2.110316 -0.529167,-4.07586 -0.529167,-4.07586 h 1.592049 c 0,0 -0.529167,1.965544 -0.529167,4.07586 0,2.110316 0.529167,4.07586 0.529167,4.07586 z"
         id="path864"
         sodipodi:nodetypes="czcczcc" />
      <path
         style="fill:none;stroke:#000000;stroke-width:0.264583px;stroke-linecap:butt;stroke-linejoin:miter;stroke-opacity:1"
         d="m 76.262473,91.005273 c 0,0 0.529167,-1.965544 0.529167,-4.07586 0,-2.110316 -0.529167,-4.07586 -0.529167,-4.07586 h 1.592049 c 0,0 -0.529167,1.965544 -0.529167,4.07586 0,2.110316 0.529167,4.07586 0.529167,4.07586 z"
         id="path866"
         sodipodi:nodetypes="czcczcc" />
      <path
         style="fill:none;stroke:#000000;stroke-width:0.264583px;stroke-linecap:butt;stroke-linejoin:miter;stroke-opacity:1"
         d="m 78.379141,91.005273 c 0,0 0.529167,-1.965544 0.529167,-4.07586 0,-2.110316 -0.529167,-4.07586 -0.529167,-4.07586 h 1.592049 c 0,0 -0.529167,1.965544 -0.529167,4.07586 0,2.110316 0.529167,4.07586 0.529167,4.07586 z"
         id="path868"
         sodipodi:nodetypes="czcczcc" />
      <path
         style="fill:none;stroke:#000000;stroke-width:0.264583px;stroke-linecap:butt;stroke-linejoin:miter;stroke-opacity:1"
         d="m 80.495809,91.005273 c 0,0 0.529167,-1.965544 0.529167,-4.07586 0,-2.110316 -0.529167,-4.07586 -0.529167,-4.07586 h 1.592049 c 0,0 -0.529167,1.965544 -0.529167,4.07586 0,2.110316 0.529167,4.07586 0.529167,4.07586 z"
         id="path870"
         sodipodi:nodetypes="czcczcc" />
    </g>
    <path
       style="fill:none;stroke:#000000;stroke-width:0.265;stroke-linecap:butt;stroke-linejoin:miter;stroke-miterlimit:4;stroke-dasharray:none;stroke-opacity:1;marker-start:url(#marker1274);marker-end:url(#marker1170)"
       d="m 14.70803,127.75158 -34.254864,19.80008"
       id="path876"
       sodipodi:nodetypes="cc" />
    <path
       style="fill:none;stroke:#000000;stroke-width:0.265;stroke-linecap:butt;stroke-linejoin:miter;stroke-miterlimit:4;stroke-dasharray:none;stroke-opacity:1;marker-start:url(#marker1314);marker-end:url(#marker1192)"
       d="M 22.04038,123.51824 79.611016,90.266423"
       id="path880"
       sodipodi:nodetypes="cc" />
    <path
       style="fill:none;stroke:#000000;stroke-width:0.265;stroke-linecap:butt;stroke-linejoin:miter;stroke-miterlimit:4;stroke-dasharray:none;stroke-opacity:1;marker-start:url(#marker1324);marker-end:url(#marker1202)"
       d="m 14.144721,126.7759 7.33235,-4.23334"
       id="path882"
       sodipodi:nodetypes="cc" />
    <path
       style="fill:none;stroke:#000000;stroke-width:0.1;stroke-linecap:butt;stroke-linejoin:miter;stroke-miterlimit:4;stroke-dasharray:0.2, 0.4;stroke-dashoffset:0;stroke-opacity:1"
       d="m 18.220577,133.83549 -4.075859,-7.0596"
       id="path1472" />
    <path
       style="fill:none;stroke:#000000;stroke-width:0.1;stroke-linecap:butt;stroke-linejoin:miter;stroke-miterlimit:4;stroke-dasharray:0.2, 0.4;stroke-dashoffset:0;stroke-opacity:1"
       d="m 25.55293,129.60216 -1.491905,-2.58406 -2.583954,-4.47554"
       id="path1474"
       sodipodi:nodetypes="ccc" />
    <path
       style="fill:none;stroke:#000000;stroke-width:0.1;stroke-linecap:butt;stroke-linejoin:miter;stroke-miterlimit:4;stroke-dasharray:0.2, 0.4;stroke-dashoffset:0;stroke-opacity:1"
       d="m 18.221325,133.83679 v 19.8002"
       id="path1598" />
    <path
       style="fill:none;stroke:#000000;stroke-width:0.1;stroke-linecap:butt;stroke-linejoin:miter;stroke-miterlimit:4;stroke-dasharray:0.2, 0.4;stroke-dashoffset:0;stroke-opacity:1"
       d="m 25.55293,129.60216 v 24.03483"
       id="path1600" />
    <path
       style="fill:none;stroke:#000000;stroke-width:0.1;stroke-linecap:butt;stroke-linejoin:miter;stroke-miterlimit:4;stroke-dasharray:0.2, 0.4;stroke-dashoffset:0;stroke-opacity:1"
       d="m 20.375433,137.56781 -4.075859,-7.0596"
       id="path1616" />
    <path
       style="fill:none;stroke:#000000;stroke-width:0.1;stroke-linecap:butt;stroke-linejoin:miter;stroke-miterlimit:4;stroke-dasharray:0.2, 0.4;stroke-dashoffset:0;stroke-opacity:1"
       d="m 22.208521,136.50947 -4.075859,-7.0596"
       id="path1618" />
    <path
       style="fill:none;stroke:#000000;stroke-width:0.1;stroke-linecap:butt;stroke-linejoin:miter;stroke-miterlimit:4;stroke-dasharray:0.2, 0.4;stroke-dashoffset:0;stroke-opacity:1"
       d="m 24.041609,135.45114 -4.075859,-7.0596"
       id="path1620" />
    <path
       style="fill:none;stroke:#000000;stroke-width:0.1;stroke-linecap:butt;stroke-linejoin:miter;stroke-miterlimit:4;stroke-dasharray:0.2, 0.4;stroke-dashoffset:0;stroke-opacity:1"
       d="m 25.874698,134.39281 -4.075859,-7.0596"
       id="path1622" />
    <path
       style="fill:none;stroke:#000000;stroke-width:0.1;stroke-linecap:butt;stroke-linejoin:miter;stroke-miterlimit:4;stroke-dasharray:0.2, 0.4;stroke-dashoffset:0;stroke-opacity:1"
       d="m 27.707786,133.33447 -4.075859,-7.0596"
       id="path1624" />
    <path
       style="fill:none;stroke:#000000;stroke-width:0.1;stroke-linecap:butt;stroke-linejoin:miter;stroke-miterlimit:4;stroke-dasharray:0.2, 0.4;stroke-dashoffset:0;stroke-opacity:1"
       d="m -16.041443,153.62647 -4.075859,-7.0596"
       id="path1638" />
    <path
       style="fill:none;stroke:#000000;stroke-width:0.1;stroke-linecap:butt;stroke-linejoin:miter;stroke-miterlimit:4;stroke-dasharray:0.2, 0.4;stroke-dashoffset:0;stroke-opacity:1"
       d="M 88.128122,105.01847 79.047646,89.290606"
       id="path1640"
       sodipodi:nodetypes="cc" />
    <path
       style="fill:none;stroke:#6d6d6d;stroke-width:0.265;stroke-linecap:butt;stroke-linejoin:miter;stroke-miterlimit:4;stroke-dasharray:none;stroke-opacity:1;marker-mid:url(#Tail)"
       d="m -18.883882,148.69992 c 0.3467,0.6005 0.6934,1.201 1.0401,1.80151 l 1.60772,2.78466 0.20259,0.3509"
       id="path1720"
       sodipodi:nodetypes="cccc" />
    <path
       style="fill:none;stroke:#6d6d6d;stroke-width:0.434596;stroke-linecap:butt;stroke-linejoin:miter;stroke-miterlimit:4;stroke-dasharray:none;stroke-opacity:1;marker-mid:url(#marker3146)"
       d="m 87.785422,104.42489 c -0.56858,-0.98481 -1.13716,-1.96962 -1.70575,-2.95445 l -2.636626,-4.566789 -0.33225,-0.575471"
       id="path3130"
       sodipodi:nodetypes="cccc" />
    <path
       style="fill:none;stroke:#000000;stroke-width:0.265;stroke-linecap:butt;stroke-linejoin:miter;stroke-miterlimit:4;stroke-dasharray:none;stroke-opacity:1;marker-start:url(#marker3638);marker-end:url(#marker3648)"
       d="M 18.221325,156.81204 H -16.033468"
       id="path3634"
       sodipodi:nodetypes="cc" />
    <path
       style="fill:none;stroke:#000000;stroke-width:0.265;stroke-linecap:butt;stroke-linejoin:miter;stroke-miterlimit:4;stroke-dasharray:none;stroke-opacity:1;marker-start:url(#marker3856);marker-end:url(#marker3866)"
       d="M 18.221325,155.75367 H 25.55293"
       id="path3852"
       sodipodi:nodetypes="cc" />
    <path
       style="fill:none;stroke:#000000;stroke-width:0.265;stroke-linecap:butt;stroke-linejoin:miter;stroke-miterlimit:4;stroke-dasharray:none;stroke-opacity:1;marker-start:url(#marker4094);marker-end:url(#marker4104)"
       d="M 83.123506,156.81201 H 25.55293"
       id="path4090"
       sodipodi:nodetypes="cc" />
    <path
       style="fill:none;stroke:#000000;stroke-width:0.1;stroke-linecap:butt;stroke-linejoin:miter;stroke-miterlimit:4;stroke-dasharray:0.2, 0.4;stroke-dashoffset:0;stroke-opacity:1"
       d="m -16.033468,153.63699 v 4.45437"
       id="path4420"
       sodipodi:nodetypes="cc" />
    <path
       style="fill:none;stroke:#000000;stroke-width:0.1;stroke-linecap:butt;stroke-linejoin:miter;stroke-miterlimit:4;stroke-dasharray:0.2, 0.4;stroke-dashoffset:0;stroke-opacity:1"
       d="m 18.221325,153.63699 v 4.45437"
       id="path4422"
       sodipodi:nodetypes="cc" />
    <path
       style="fill:none;stroke:#000000;stroke-width:0.1;stroke-linecap:butt;stroke-linejoin:miter;stroke-miterlimit:4;stroke-dasharray:0.2, 0.4;stroke-dashoffset:0;stroke-opacity:1"
       d="m 25.55293,153.63699 v 4.45437"
       id="path4424"
       sodipodi:nodetypes="cc" />
    <path
       style="fill:none;stroke:#000000;stroke-width:0.1;stroke-linecap:butt;stroke-linejoin:miter;stroke-miterlimit:4;stroke-dasharray:0.2, 0.4;stroke-dashoffset:0;stroke-opacity:1"
       d="m 83.123506,153.63699 v 4.45437"
       id="path4426"
       sodipodi:nodetypes="cc" />
    <path
       id="path1177"
       style="fill:none;stroke:#000000;stroke-width:0.265;stroke-linecap:square;stroke-linejoin:round;stroke-dashoffset:3.4;paint-order:markers fill stroke"
       d="m -4.1751469,146.79181 c 1.1648965,2.01366 1.8316117,4.35158 1.8316124,6.84521"
       sodipodi:nodetypes="cc" />
    <path
       style="fill:none;stroke:#000000;stroke-width:0.265;stroke-linecap:butt;stroke-linejoin:miter;stroke-miterlimit:4;stroke-dasharray:none;stroke-opacity:1;marker-start:url(#marker3638-3);marker-end:url(#marker3648-7)"
       d="M 83.123506,96.350206 -16.033471,153.63702"
       id="path1179"
       sodipodi:nodetypes="cc" />
  </g>
</svg>
